<svg width="29" height="45" viewBox="0 0 29 45" fill="none" xmlns="http://www.w3.org/2000/svg">
<path fill-rule="evenodd" clip-rule="evenodd" d="M14.2085 1.58588C13.7096 4.22128 9.80901 10.9254 4.77449 17.8606C-0.396102 24.9808 -1.34858 30.9914 1.82634 36.3547C4.09415 40.1922 8.72046 43.2437 13.3468 43.9372C14.8889 44.1684 15.2971 44.1222 16.9753 43.7061C22.9169 42.1803 27.5886 37.7417 28.7225 32.6096C29.4482 29.3732 28.7225 25.4894 26.8629 21.9756C26.4093 21.1433 24.8672 18.7391 23.3705 16.6585C21.8737 14.5317 20.0141 11.7114 19.1977 10.3706C17.4288 7.50398 15.0703 2.74176 14.8435 1.67835C14.6621 0.707417 14.39 0.661182 14.2085 1.58588ZM4.91055 19.109C2.82418 21.9756 1.32743 25.8131 1.00994 28.7721C0.556375 33.5806 3.45916 38.6202 8.17619 41.3481L9.08331 41.8567L7.94941 40.3771C6.63408 38.6664 5.22805 36.0773 4.41164 33.9042C2.77882 29.4194 3.0056 24.0561 5.04662 19.6638C5.45483 18.7391 5.77232 17.9993 5.72696 17.9993C5.77232 17.9993 5.36411 18.5079 4.91055 19.109Z" fill="white"/>
</svg>
